<svg xmlns="http://www.w3.org/2000/svg" xmlns:xlink="http://www.w3.org/1999/xlink" viewBox="0 0 1735.1 1383.17"><defs><style>.cls-1{isolation:isolate;}.cls-2{fill:#414042;}.cls-3{fill:#fff;}.cls-4{fill:url(#linear-gradient);}.cls-5{fill:url(#linear-gradient-2);}.cls-6{fill:url(#radial-gradient);}.cls-7{fill:url(#radial-gradient-2);}.cls-8{fill:url(#radial-gradient-3);}.cls-9{fill:url(#linear-gradient-3);}.cls-10{fill:url(#linear-gradient-4);}.cls-11{fill:url(#linear-gradient-5);}.cls-12,.cls-13,.cls-20{opacity:0.7;}.cls-12,.cls-13,.cls-15,.cls-16,.cls-20,.cls-22,.cls-25,.cls-30{mix-blend-mode:multiply;}.cls-12{fill:url(#linear-gradient-6);}.cls-13{fill:url(#linear-gradient-7);}.cls-14,.cls-15,.cls-23,.cls-30{opacity:0.5;}.cls-14,.cls-18,.cls-21,.cls-23,.cls-26,.cls-27,.cls-28{mix-blend-mode:screen;}.cls-14{fill:url(#radial-gradient-4);}.cls-15{fill:url(#linear-gradient-8);}.cls-16{fill:url(#linear-gradient-9);}.cls-17{fill:url(#linear-gradient-10);}.cls-18{fill:url(#radial-gradient-5);}.cls-19{fill:url(#radial-gradient-6);}.cls-20{fill:url(#linear-gradient-11);}.cls-21,.cls-22{opacity:0.6;}.cls-21{fill:url(#linear-gradient-12);}.cls-22{fill:url(#linear-gradient-13);}.cls-23{fill:url(#radial-gradient-7);}.cls-24{fill:url(#linear-gradient-14);}.cls-25{fill:url(#linear-gradient-15);}.cls-26,.cls-27{opacity:0.4;}.cls-26{fill:url(#linear-gradient-16);}.cls-27{fill:url(#radial-gradient-8);}.cls-28{opacity:0.8;fill:url(#radial-gradient-9);}.cls-29{fill:none;stroke-miterlimit:10;stroke:url(#radial-gradient-10);}.cls-30{fill:url(#linear-gradient-17);}.cls-31{fill:#743a96;}.cls-32{fill:url(#linear-gradient-18);}.cls-33{fill:url(#linear-gradient-19);}.cls-34{fill:#faaf3c;}</style><linearGradient id="linear-gradient" x1="1448.86" y1="158.41" x2="522.32" y2="1026.43" gradientUnits="userSpaceOnUse"><stop offset="0" stop-color="#fff"/><stop offset="0.5" stop-color="#d64191"/><stop offset="1" stop-color="#63358e"/></linearGradient><linearGradient id="linear-gradient-2" x1="1644.47" y1="367.04" x2="717.84" y2="1235.15" xlink:href="#linear-gradient"/><radialGradient id="radial-gradient" cx="588.68" cy="1230.43" r="965.11" gradientUnits="userSpaceOnUse"><stop offset="0" stop-color="#87194c"/><stop offset="0.46" stop-color="#ee2a52"/><stop offset="1" stop-color="#ffc750"/></radialGradient><radialGradient id="radial-gradient-2" cx="-13.12" cy="2503.76" r="2382.25" xlink:href="#radial-gradient"/><radialGradient id="radial-gradient-3" cx="265.29" cy="1987.68" r="1702.57" xlink:href="#radial-gradient"/><linearGradient id="linear-gradient-3" x1="1396.36" y1="384.02" x2="746.15" y2="1157.77" xlink:href="#linear-gradient"/><linearGradient id="linear-gradient-4" x1="1598.86" y1="318.52" x2="672.32" y2="1186.54" xlink:href="#linear-gradient"/><linearGradient id="linear-gradient-5" x1="1487.67" y1="199.83" x2="561.13" y2="1067.86" xlink:href="#linear-gradient"/><linearGradient id="linear-gradient-6" x1="1013.66" y1="542.52" x2="938.07" y2="532.77" gradientUnits="userSpaceOnUse"><stop offset="0" stop-color="#c3292e"/><stop offset="0.5" stop-color="#faaf3c"/><stop offset="1" stop-color="#fff" stop-opacity="0"/></linearGradient><linearGradient id="linear-gradient-7" x1="657.94" y1="961.14" x2="1018" y2="563.7" xlink:href="#linear-gradient-6"/><radialGradient id="radial-gradient-4" cx="884.05" cy="713.11" r="211.2" gradientUnits="userSpaceOnUse"><stop offset="0" stop-color="#f9a252"/><stop offset="0.1" stop-color="#f7b15c" stop-opacity="0.8"/><stop offset="0.23" stop-color="#f6c168" stop-opacity="0.59"/><stop offset="0.36" stop-color="#f4cf71" stop-opacity="0.41"/><stop offset="0.49" stop-color="#f3da79" stop-opacity="0.26"/><stop offset="0.62" stop-color="#f2e37f" stop-opacity="0.15"/><stop offset="0.75" stop-color="#f2e984" stop-opacity="0.07"/><stop offset="0.88" stop-color="#f1ed86" stop-opacity="0.02"/><stop offset="1" stop-color="#f1ee87" stop-opacity="0"/></radialGradient><linearGradient id="linear-gradient-8" x1="949.1" y1="1008.13" x2="883.26" y2="975.62" gradientUnits="userSpaceOnUse"><stop offset="0" stop-color="#fff" stop-opacity="0"/><stop offset="0.5" stop-color="#e13d83" stop-opacity="0.4"/><stop offset="1" stop-color="#ab1e55"/></linearGradient><linearGradient id="linear-gradient-9" x1="858.28" y1="1123.22" x2="880.5" y2="970.42" gradientUnits="userSpaceOnUse"><stop offset="0" stop-color="#ab1e55"/><stop offset="0.5" stop-color="#e13d83" stop-opacity="0.4"/><stop offset="1" stop-color="#fff" stop-opacity="0"/></linearGradient><linearGradient id="linear-gradient-10" x1="917.16" y1="1150.01" x2="916.97" y2="1150.19" xlink:href="#linear-gradient"/><radialGradient id="radial-gradient-5" cx="947.1" cy="522.83" r="193.8" xlink:href="#radial-gradient-4"/><radialGradient id="radial-gradient-6" cx="699.76" cy="903.08" r="109.26" xlink:href="#radial-gradient"/><linearGradient id="linear-gradient-11" x1="897.85" y1="668.02" x2="713.62" y2="583.49" xlink:href="#linear-gradient-6"/><linearGradient id="linear-gradient-12" x1="857.74" y1="649.61" x2="803.73" y2="624.83" xlink:href="#radial-gradient-4"/><linearGradient id="linear-gradient-13" x1="1223.62" y1="570.76" x2="1317.08" y2="605.31" xlink:href="#linear-gradient-9"/><radialGradient id="radial-gradient-7" cx="1287.65" cy="547.22" r="179.81" xlink:href="#radial-gradient-4"/><linearGradient id="linear-gradient-14" x1="1035.2" y1="952.06" x2="1034.85" y2="954.07" xlink:href="#linear-gradient-6"/><linearGradient id="linear-gradient-15" x1="1311.62" y1="942.06" x2="1127.39" y2="691.73" gradientUnits="userSpaceOnUse"><stop offset="0" stop-color="#702266"/><stop offset="0.67" stop-color="#9f3c90" stop-opacity="0"/><stop offset="1" stop-color="#fff" stop-opacity="0"/></linearGradient><linearGradient id="linear-gradient-16" x1="1158.61" y1="889.92" x2="1331.45" y2="712.74" xlink:href="#linear-gradient-15"/><radialGradient id="radial-gradient-8" cx="1154.36" cy="488.7" r="102.1" xlink:href="#radial-gradient-4"/><radialGradient id="radial-gradient-9" cx="703.27" cy="747.16" r="197.38" xlink:href="#radial-gradient-4"/><radialGradient id="radial-gradient-10" cx="773.47" cy="1020.99" r="1.28" xlink:href="#radial-gradient-4"/><linearGradient id="linear-gradient-17" x1="1065.34" y1="1018.34" x2="968.9" y2="1067.11" xlink:href="#linear-gradient-8"/><linearGradient id="linear-gradient-18" x1="132.45" y1="1283.93" x2="560.98" y2="1283.93" gradientUnits="userSpaceOnUse"><stop offset="0" stop-color="#ca188d"/><stop offset="0.01" stop-color="#cb1c8d"/><stop offset="0.04" stop-color="#d02d8f"/><stop offset="0.09" stop-color="#d33890"/><stop offset="0.15" stop-color="#d53f91"/><stop offset="0.32" stop-color="#d64191"/><stop offset="0.42" stop-color="#bc3e90"/><stop offset="0.59" stop-color="#963a8f"/><stop offset="0.76" stop-color="#7a378f"/><stop offset="0.9" stop-color="#69368e"/><stop offset="1" stop-color="#63358e"/></linearGradient><linearGradient id="linear-gradient-19" x1="391.96" y1="1323.56" x2="1867.55" y2="1323.56" xlink:href="#linear-gradient-18"/></defs><title>Logo</title><g class="cls-1"><g id="Layer_1" data-name="Layer 1"><path class="cls-2" d="M631.9,1690.5v-97.78h33.74a63.81,63.81,0,0,1,16.4,1.83,31.24,31.24,0,0,1,11.16,5.2,20.23,20.23,0,0,1,6.39,8.19,27.57,27.57,0,0,1,2,10.82,21.23,21.23,0,0,1-1,6.59,18.81,18.81,0,0,1-3.14,5.88,23.65,23.65,0,0,1-5.41,5,32.81,32.81,0,0,1-7.81,3.79q20.14,4.53,20.15,21.77a27.75,27.75,0,0,1-2.37,11.5,25.34,25.34,0,0,1-6.89,9.09,32.86,32.86,0,0,1-11.16,6,48.86,48.86,0,0,1-15.15,2.16Zm18.19-55.45h14.54q9.25,0,14.06-3.38t4.81-10.75q0-7.64-4.33-10.89t-13.53-3.24H650.09Zm0,12.58v28.67h18.46a25.33,25.33,0,0,0,8.49-1.22,14.72,14.72,0,0,0,5.47-3.24,11.85,11.85,0,0,0,3-4.73,17.85,17.85,0,0,0,.91-5.75,15.42,15.42,0,0,0-1-5.72,10.73,10.73,0,0,0-3.18-4.32,14.75,14.75,0,0,0-5.54-2.74,30.82,30.82,0,0,0-8.19-.95Z" transform="translate(-132.45 -308.42)"/><path class="cls-2" d="M820.09,1592.72v14.47H776.74v27.12h34.15v14H776.74V1676h43.35v14.54H758.42v-97.78Z" transform="translate(-132.45 -308.42)"/><path class="cls-2" d="M960.2,1690.5H946.14a6.13,6.13,0,0,1-3.89-1.18,6.7,6.7,0,0,1-2.2-2.94l-7.3-20H892.24l-7.3,20a6.39,6.39,0,0,1-2.13,2.84,6,6,0,0,1-3.89,1.28H864.79l38.41-97.78h18.59Zm-63.29-36.92h31.17l-11.9-32.52q-.81-2.18-1.79-5.11t-1.93-6.39q-.94,3.45-1.86,6.42c-.61,2-1.21,3.72-1.79,5.21Z" transform="translate(-132.45 -308.42)"/><path class="cls-2" d="M1044.53,1675.83a24.06,24.06,0,0,0,9.43-1.76,19.58,19.58,0,0,0,7-4.94,21.48,21.48,0,0,0,4.4-7.7,31.91,31.91,0,0,0,1.52-10.15v-58.56h18.19v58.56a45,45,0,0,1-2.81,16.13,36.31,36.31,0,0,1-8.08,12.78,36.87,36.87,0,0,1-12.78,8.39,49.13,49.13,0,0,1-33.81,0,35.8,35.8,0,0,1-20.79-21.17,45.18,45.18,0,0,1-2.81-16.13v-58.56h18.19v58.49a31.87,31.87,0,0,0,1.52,10.15,22.31,22.31,0,0,0,4.36,7.74,19.22,19.22,0,0,0,7,5A24.11,24.11,0,0,0,1044.53,1675.83Z" transform="translate(-132.45 -308.42)"/><path class="cls-2" d="M1210.94,1592.72v15h-29.41v82.83h-18.19v-82.83h-29.55v-15Z" transform="translate(-132.45 -308.42)"/><path class="cls-2" d="M1304.4,1652.5v38h-18.19v-38l-35.64-59.78h16a5.7,5.7,0,0,1,3.75,1.15,9.81,9.81,0,0,1,2.33,2.91l17.92,32.66q1.56,2.91,2.7,5.51t2.1,5.11c.59-1.72,1.25-3.44,2-5.18s1.63-3.55,2.67-5.44l17.78-32.66a9.05,9.05,0,0,1,2.23-2.77,5.6,5.6,0,0,1,3.79-1.29H1340Z" transform="translate(-132.45 -308.42)"/><path class="cls-3" d="M1044.69,533.12a257.5,257.5,0,0,0,7.58-34A211.26,211.26,0,0,1,1044.69,533.12Z" transform="translate(-132.45 -308.42)"/><path class="cls-3" d="M1068.22,417.38l-.7-.51a.13.13,0,0,0-.07,0,4.73,4.73,0,0,0-.28-.42,5.78,5.78,0,0,0,.5.48s0,0,.07,0Z" transform="translate(-132.45 -308.42)"/><path class="cls-4" d="M1129.24,500.24A327.48,327.48,0,0,0,1101.32,454c-1.81-2.52-3.63-5-5.44-7.32,1.91,2.35,3.85,4.8,5.73,7.35a256.13,256.13,0,0,1,22.25,35.21C1125.71,492.82,1127.52,496.48,1129.24,500.24Z" transform="translate(-132.45 -308.42)"/><path class="cls-5" d="M982.2,1168.13C804.13,1165,778.22,1039.52,803.78,980a70.46,70.46,0,0,1,6.27-11.77.86.86,0,0,1,.1-.16l28,3.24,37.66,4.4a255.59,255.59,0,0,0-14.61,31.13c0,.1-.07.16-.1.25a165.62,165.62,0,0,0-8.21,27.8c-.77,3.69-1.34,7.28-1.75,10.79,0,.28-.07.57-.1.89-.38,3.5-.6,6.91-.63,10.18a1.5,1.5,0,0,0,0,.42c-.73,43.26,24.77,70,53.55,86.3a.46.46,0,0,0,.16.06c4,2.29,8.11,4.36,12.19,6.24l.38.19a8.2,8.2,0,0,0,.76.32v0A229.09,229.09,0,0,0,982.2,1168.13Z" transform="translate(-132.45 -308.42)"/><path class="cls-6" d="M709.52,803.45c-.29,2.2-.51,4.36-.7,6.53C709,807.62,709.46,803.26,709.52,803.45Z" transform="translate(-132.45 -308.42)"/><path class="cls-7" d="M1054.5,471.11c-.1,2.9-.26,5.8-.48,8.66a263.69,263.69,0,0,1-4.43,32.09,272.08,272.08,0,0,1-19.83,60.8c-23.24,50.39-59.3,94.07-99.51,131.89-1.65,1.56-3.28,3.08-4.93,4.61-60.2,56.28-115.56,102.76-146.53,152.07l-.16.25c-28.43,48.42-29,86.24-21.71,115.68,4.74,19.07,12.73,34.64,18.62,47.31-1.65-2-54.91-68.35-65.45-164.42a303.59,303.59,0,0,1-1.68-39.5c.06-3.35.19-6.75.38-10.16a1.84,1.84,0,0,1,0-.41c.16-2.3.61-6.53.7-6.53.48-3.91,1.05-7.86,1.75-11.81.64-3.66,1.37-7.35,2.26-11,7.16-31.8,21.78-64.17,46-91.45-.86.63-14.74,11-31.1,31.35A246.09,246.09,0,0,0,698,769c-40.17-129.53-40.72-240.85-40.72-240.85.48-.26,1-.51,1.44-.73,74.14-38.81,150.19-58.86,211.59-69.18,17.41-3,33.65-5.09,48.36-6.65,7-.76,13.65-1.37,19.92-1.88,1-.06,1.91-.16,2.87-.22,26-2,44.79-2.1,53.35-2a136.78,136.78,0,0,0,1.37-45.8c-.06-.61-.19-1.21-.29-1.82-8.43-55-48.26-89-51-91.33a.53.53,0,0,1-.15-.12h.06a118.42,118.42,0,0,1,45.71,17.92c2.2,1.46,4.36,3,6.46,4.61.64.48,1.28,1,1.91,1.47C1039.92,365,1056.28,420.12,1054.5,471.11Z" transform="translate(-132.45 -308.42)"/><path class="cls-8" d="M1091.25,510.11a161.28,161.28,0,0,0-3-18.69c-.78,6.28-1.08,12.44-2.31,18.54-.72,6.1-2.3,12.09-3.52,18l-2.49,8.79c-.41,1.45-.77,2.92-1.22,4.36l-1.5,4.29-2.92,8.54-3.44,8.35c-9.15,22.17-21.45,42.78-35.44,62.14-3.62,4.78-7,9.65-10.8,14.32l-11.32,13.94c-4,4.48-8,8.95-11.91,13.49S993.14,675,989,679.34s-8.44,8.59-12.72,12.84-8.51,8.52-13.06,12.53L950,717.09l-13.8,12.34-27.57,24.93c-9.12,8.46-18.36,16.86-27.38,25.59-18,17.4-35.86,35.51-51.91,55.63S799,878,790.72,903.18s-8.58,52.6-.06,76.28a149.1,149.1,0,0,1,.53-18.6c.27-3,.72-6.08,1.07-9.08.57-3,1-6,1.75-8.88a138.8,138.8,0,0,1,12.52-33.14c11.14-20.74,26.52-38.93,43.37-56s35.16-33.22,53.71-49.35l28-24.26,28-24.67c37.39-33.24,73.45-71.22,99-116.17,12.79-22.4,23.14-46.52,28.67-71.83l2-9.48c.5-3.19.94-6.39,1.35-9.58l.62-4.78c.16-1.6.22-3.22.34-4.82.22-3.21.37-6.41.5-9.59C1091.87,522.78,1092,516.44,1091.25,510.11Z" transform="translate(-132.45 -308.42)"/><path class="cls-9" d="M1342.68,528.16s-.57,115.62-43.1,248.3c-3.34,10.47-7,21.07-10.86,31.7-1.08,2.93-2.16,5.86-3.28,8.82a.25.25,0,0,0-.06.13c-.06.19-.16.41-.22.6-1.72,4.52-3.47,9-5.32,13.56-6.37,15.86-13.43,31.77-21.2,47.56-32,65.16-76.21,128.51-137.3,178.93a445.18,445.18,0,0,1-121.28,71.47.09.09,0,0,1-.06,0,448.85,448.85,0,0,1-147.07-94.41,1.35,1.35,0,0,1-.19-.16,497,497,0,0,1-49-54.73,70.46,70.46,0,0,1,6.27-11.77.86.86,0,0,1,.1-.16c7.79-10.83,19.25-20.47,35.74-27.67H846c3.09-1.11,6.14-2.13,9.2-3.08.7-.26,1.33-.42,2-.61.39-.09.74-.22,1.09-.32,1.11-.35,2.26-.66,3.34-1l.16-.06a226.18,226.18,0,0,1,49.15-7.61l2.64-.1c1.11,0,2.2-.06,3.31-.06,2.68-.07,5.32-.07,8,0h.51a258.74,258.74,0,0,1,71.24,11.17c1.18.32,2.29.7,3.41,1l.51.16c5.12,1.69,9.8,3.41,14,5.12,7.1,2.9,13.85,5.35,20.25,7.42a.24.24,0,0,0,.13,0c18.3,6,33.77,8.82,46.66,9.39,23.31,1.12,38.3-5,46.93-13.14,6.71-6.27,9.61-13.76,9.58-19.9,0-.79,0-1.59-.1-2.29-1.59-18.78-21.49-21.93-21.49-21.93S1129.88,890,1135,879.85c.19-.35.35-.7.51-1,1.37-2.9,1.94-5.35,1.18-6.87-3.47-6.91-35.27-.9-35.27-.9s67.48-43.8,69.62-48.54-7.74-18.46-3-23.62,43.39-34.8,43.39-34.8-2.67-2.76-6.81-7.51a1.86,1.86,0,0,1-.22-.25c-4.27-4.81-10-11.62-16-19.45-.26-.32-.48-.64-.74-1-1.68-2.23-3.4-4.55-5.09-6.94a188.17,188.17,0,0,1-16.65-27.44c-.12-.22-.25-.47-.38-.76a90.74,90.74,0,0,1-4.52-11.27,2.74,2.74,0,0,1-.19-.6,164.44,164.44,0,0,1-6.69-24.68,171.88,171.88,0,0,1-2.92-24.63c13.78-7.64,30.46-15.32,42.68-33.91-2.7,3.63-15.5,10.13-31.92,19.74,9.64-7.35,20.94-17.79,29.47-30.88-3,4.17-14.86,18.75-40.2,30.15a4.57,4.57,0,0,0,0-.64c.22-2.74.41-5.54.48-8.37a.72.72,0,0,0,.06-.35,259.12,259.12,0,0,0-3.56-53.67c0-.26-.07-.54-.13-.77l-.1-.76q-2-11.17-4.87-21.55A246.75,246.75,0,0,0,1129.59,501c-.1-.25-.22-.47-.35-.73A327.48,327.48,0,0,0,1101.32,454c-1.81-2.52-3.63-5-5.44-7.32-.19-.26-.38-.48-.57-.73-9.87-12.83-19.58-23.24-27.09-28.59-.2-.13-.39-.29-.58-.41a1.06,1.06,0,0,0-.12-.1.33.33,0,0,1,.15,0,.11.11,0,0,1,.07,0c.06,0,.09,0,.16,0a2.07,2.07,0,0,1,.38.12,2,2,0,0,1,.41.13l.67.22c7.64,2.74,36.77,14.23,63.57,41.39a166.3,166.3,0,0,1,20.66,25.4c1.08,1.65,2.17,3.34,3.22,5.06.76,1.27,1.52,2.55,2.29,3.88s1.4,2.49,2.07,3.76c.51.92,1,1.88,1.49,2.83.9,1.72,1.75,3.44,2.58,5.22a1,1,0,0,1,.13.29c.76,1.56,1.46,3.15,2.16,4.78.45,1,.86,2,1.28,3,.51,1.21,1,2.45,1.49,3.72,0,0,0-.54,0-1.56a120.56,120.56,0,0,0-1.09-14.42,148.7,148.7,0,0,0-9.86-37,235.15,235.15,0,0,1,37,63c15.75,39.5,19.89,79,19.8,109.82-.1,32.63-4.84,55.68-5.58,58.93a1,1,0,0,0-.06.25c1-2.13,13.37-27.76,20.25-65.67,5.6-30.69,7.67-69.43-2.68-110.33a227.89,227.89,0,0,0-15.18-42.31c-18.62-34.38-56.44-66.66-67.46-75.44a.25.25,0,0,1,.1,0c2.93.63,46.44,10.82,84.55,44.63a173.45,173.45,0,0,1,23.62,25.53s.06,0,.06.06a163.71,163.71,0,0,1,14.23,22.6,5.49,5.49,0,0,0,.83.32c3.28,1.21,6.56,2.48,9.84,3.76,2.57,1,5.15,2,7.73,3.09s5,2.06,7.55,3.12c.85.38,1.71.73,2.57,1.11,3,1.24,6,2.55,8.92,3.88.57.23,1.11.48,1.65.74,2.45,1.08,4.87,2.19,7.29,3.31,2.93,1.36,5.89,2.73,8.82,4.17,5.73,2.77,11.46,5.6,17.16,8.59.28.16.57.29.86.45C1341.72,527.65,1342.2,527.9,1342.68,528.16Z" transform="translate(-132.45 -308.42)"/><path class="cls-10" d="M1042,954.7c-96.42-36.45-140.68-61.1-198.39-48.78,0,0,62.75,7.85,110.37,64.43S1042,954.7,1042,954.7Z" transform="translate(-132.45 -308.42)"/><path class="cls-3" d="M1067.17,416.42a5.78,5.78,0,0,0,.5.48.33.33,0,0,0-.15,0,.13.13,0,0,0-.07,0A4.73,4.73,0,0,0,1067.17,416.42Z" transform="translate(-132.45 -308.42)"/><path class="cls-11" d="M1168.81,513a186.34,186.34,0,0,0-9.71-19.87A168.21,168.21,0,0,1,1168.81,513Z" transform="translate(-132.45 -308.42)"/><path class="cls-12" d="M923.6,623.5c.57-2.71,23.2-105.11,15-173.78,1-.06,1.91-.16,2.87-.22,26-2,44.79-2.1,53.35-2C990.48,498.36,967,557,923.6,623.5Z" transform="translate(-132.45 -308.42)"/><path class="cls-13" d="M1054.5,471.11c-.1,2.9-.26,5.8-.48,8.66a263.69,263.69,0,0,1-4.43,32.09,272.08,272.08,0,0,1-19.83,60.8c-23.24,50.39-59.3,94.07-99.51,131.89-62.1,58.38-119.66,106-151.46,156.68l-.16.25c-28.43,48.42-29,86.24-21.71,115.68-40.24-137.36,23.37-204,99.06-271.47S970.81,561,991.47,478.94C1003.15,432.56,1031.77,448.48,1054.5,471.11Z" transform="translate(-132.45 -308.42)"/><path class="cls-14" d="M1023.65,450c-12.16-1.94-22.95,5.25-29.06,29.57-20.66,82.1-59.82,159.3-135.48,226.75-70.39,62.77-130.33,124.79-106,243.65a132.48,132.48,0,0,0,3.85,27.15c-40.24-137.36,23.37-204,99.07-271.47S970.81,561,991.47,478.94C998.12,452.56,1010.22,446.35,1023.65,450Z" transform="translate(-132.45 -308.42)"/><path class="cls-15" d="M1001.33,939l-.82,1c-8.22,9.84-76.59,93.43-76.24,150.92a448.61,448.61,0,0,1-71.34-56c-.77,3.69-1.34,7.28-1.75,10.79.38-3.76.89-7.42,1.56-11a121.37,121.37,0,0,1,8.4-27.64c0-.09.07-.15.1-.25,22.31-49.88,76.14-71,135.35-68.09C998.18,938.77,999.74,938.87,1001.33,939Z" transform="translate(-132.45 -308.42)"/><path class="cls-16" d="M904,1143.43c-97-52.5-82.77-121.19-71.85-158.94a50.44,50.44,0,0,1,6.08-13.22l37.66,4.4a255.59,255.59,0,0,0-14.61,31.13c0,.1-.07.16-.1.25a165.62,165.62,0,0,0-8.21,27.8c-.77,3.69-1.34,7.28-1.75,10.79,0,.28-.07.57-.1.89-.38,3.5-.6,6.91-.63,10.18a1.5,1.5,0,0,0,0,.42C849.68,1100.39,875.18,1127.1,904,1143.43Z" transform="translate(-132.45 -308.42)"/><path class="cls-17" d="M917.45,1150.24v0c-.25-.13-.51-.25-.76-.35A8.2,8.2,0,0,0,917.45,1150.24Z" transform="translate(-132.45 -308.42)"/><path class="cls-18" d="M1054.5,471.11c-.1,2.9-.26,5.8-.48,8.66a263.69,263.69,0,0,1-4.43,32.09,272.08,272.08,0,0,1-19.83,60.8c-23.24,50.39-59.3,94.07-99.51,131.89-1.65,1.56-3.28,3.08-4.93,4.61L899.47,700S965.81,628,997.23,548.85s48.77-176.1-52.34-240.31l-.09-.12a118.42,118.42,0,0,1,45.71,17.92c2.2,1.46,4.36,3,6.46,4.61.64.48,1.28,1,1.91,1.47C1039.92,365,1056.28,420.12,1054.5,471.11Z" transform="translate(-132.45 -308.42)"/><path class="cls-19" d="M711.27,791.64c.64-3.66,1.37-7.35,2.26-11a206.31,206.31,0,0,0-5.12,40c.06-3.35.19-6.75.38-10.16a1.84,1.84,0,0,1,0-.41c.16-2.3.61-6.53.7-6.53C710,799.54,710.57,795.59,711.27,791.64Z" transform="translate(-132.45 -308.42)"/><path class="cls-20" d="M791.87,658.16s-60,42.63-78.34,122.43c7.16-31.8,21.78-64.17,46-91.45-.86.63-14.74,11-31.1,31.35A246.09,246.09,0,0,0,698,769c-3.25-10.51-6.27-20.92-9-31.14-31.26-115.74-31.71-209.71-31.71-209.71.48-.26,1-.51,1.44-.73,74.14-38.81,150.19-58.86,211.59-69.18C939.45,559.58,791.87,658.16,791.87,658.16Z" transform="translate(-132.45 -308.42)"/><path class="cls-21" d="M791.87,658.16s-60,42.63-78.34,122.43c7.16-31.8,21.78-64.17,46-91.45a149.08,149.08,0,0,0-15.09,13.43C765.61,673.35,787,658.16,787,658.16S933.88,560.06,866,459c1.46-.23,2.93-.48,4.39-.74C939.45,559.58,791.87,658.16,791.87,658.16Z" transform="translate(-132.45 -308.42)"/><path class="cls-22" d="M1270.86,680.51c8-39.73,13.47-80,11.4-117.14v0c0-.09,0-.47-.06-1.05a233.6,233.6,0,0,0-3.66-29.79c0-.16-.07-.29-.1-.45-2.13-12.19-5.41-25.88-10.41-37.15a5.49,5.49,0,0,0,.83.32c3.28,1.21,6.56,2.48,9.84,3.76,2.57,1,5.15,2,7.73,3.09q5.07,2,10.12,4.23c3,1.24,6,2.55,8.92,3.88.57.23,1.11.48,1.65.74,2.45,1.08,4.87,2.19,7.29,3.31,2.93,1.36,5.89,2.73,8.82,4.17,5.73,2.77,11.46,5.6,17.16,8.59C1341.09,606.4,1270.86,680.51,1270.86,680.51Z" transform="translate(-132.45 -308.42)"/><path class="cls-23" d="M1257.58,621.18c-11,68.37-27.56,109.4-53,135.41a1.86,1.86,0,0,1-.22-.25c-4.27-4.81-10-11.62-16-19.45a214.31,214.31,0,0,0,22.18-41.35,1,1,0,0,0-.06.25c2.2-4.46,53.32-110.94,2.39-218.31-18.62-34.38-56.44-66.66-67.46-75.44a.25.25,0,0,1,.1,0C1149.39,403.53,1283.86,458.35,1257.58,621.18Z" transform="translate(-132.45 -308.42)"/><path class="cls-24" d="M1034.76,952.46a.24.24,0,0,0,.13,0V956S1034.85,954.75,1034.76,952.46Z" transform="translate(-132.45 -308.42)"/><path class="cls-25" d="M1329.09,633.37s-5.67,76.33-43.65,183.61a.25.25,0,0,0-.06.13c-.06.19-.16.41-.22.6q-2.45,6.93-5.32,13.56c-35.68,83-116.35,136.38-198.29,130.61,23.31,1.12,38.3-5,46.93-13.14,6.71-6.27,9.61-13.76,9.58-19.9,0-.79,0-1.59-.1-2.29-1.59-18.78-21.49-21.93-21.49-21.93S1129.88,890,1135,879.85c.19-.35.35-.7.51-1,1.37-2.9,1.94-5.35,1.18-6.87-3.47-6.91-35.27-.9-35.27-.9s67.48-43.8,69.62-48.54-7.74-18.46-3-23.62,43.39-34.8,43.39-34.8-2.67-2.76-6.81-7.51a1.86,1.86,0,0,1-.22-.25c-4.27-4.81-10-11.62-16-19.45-.26-.32-.48-.64-.74-1-7.89-10.37-16.07-22.54-21.74-34.38-.12-.22-.25-.47-.38-.76a90.74,90.74,0,0,1-4.52-11.27,2.74,2.74,0,0,1-.19-.6,164.44,164.44,0,0,1-6.69-24.68l62-27.63c-.1,32.63-4.84,55.68-5.58,58.93a1,1,0,0,0-.06.25c1-2.13,13.37-27.76,20.25-65.67l78.24-1.81Z" transform="translate(-132.45 -308.42)"/><path class="cls-26" d="M1329.09,633.37s-5.67,76.33-43.65,183.61a.25.25,0,0,0-.06.13c-.06.19-.16.41-.22.6q-2.45,6.93-5.32,13.56c-35.68,83-116.35,136.38-198.29,130.61,16.3.77,28.53-2,37.34-6.49,66.63-11.21,127.24-59.69,156.88-128.57q2.87-6.65,5.31-13.56c.07-.2.16-.42.23-.61a.25.25,0,0,1,.06-.13c33.33-94.16,41.76-164.48,43.32-180.27Z" transform="translate(-132.45 -308.42)"/><path class="cls-27" d="M1151.84,615.35a259.12,259.12,0,0,0-3.56-53.67c0-.26-.07-.54-.13-.77l-.1-.76A245.56,245.56,0,0,0,1129.59,501c-.1-.25-.22-.47-.35-.73A327.48,327.48,0,0,0,1101.32,454c-1.81-2.52-3.63-5-5.44-7.32-.19-.26-.38-.48-.57-.73-9.87-12.83-19.58-23.24-27.09-28.59-.2-.13-.39-.29-.58-.41l0-.07a.11.11,0,0,1,.07,0c2.67,1.56,88.62,52.21,101.07,151.43,2.77,22-4.49,40.37-17.51,55.71.22-2.74.41-5.54.48-8.37A.72.72,0,0,0,1151.84,615.35Z" transform="translate(-132.45 -308.42)"/><path class="cls-28" d="M954.29,593.7c-6.28,9-13.57,18.43-21.94,28.4-27.18,32.47-65.7,70.92-117.72,122.62-117.46,116.73-58.28,244.92-42.56,273.76C753.2,985,676.16,827.06,784.42,720.33,907.28,599.23,904.69,590.3,904,527.71l44.24,53.67,5.23,6.34Z" transform="translate(-132.45 -308.42)"/><path class="cls-29" d="M772.81,1019.79c.5.92,1,1.75,1.33,2.39C773.76,1021.51,773.31,1020.71,772.81,1019.79Z" transform="translate(-132.45 -308.42)"/><path class="cls-30" d="M1121.34,1057.76a445.18,445.18,0,0,1-121.28,71.47v-158Z" transform="translate(-132.45 -308.42)"/><path class="cls-31" d="M835.33,1374.78a8.58,8.58,0,0,0-3.27.73,5.83,5.83,0,0,0-1.81,2.34,20.7,20.7,0,0,0-1.81,4.88A265.78,265.78,0,0,1,807.63,1428q-13.2,23.18-25.88,36.9-18.82,19.55-36.2,22.47l-4.7.35q-10.86,0-14.46-8.68c-.51-1.21-.91-2.41-1.29-3.62a17.36,17.36,0,0,1-.52-4.71v-8.32a137.34,137.34,0,0,1,1.63-21.18q1.62-10.68,7-36l6.9-32.58q3.58-16.26,3.59-27.14,0-16.26-9-23.16a18.24,18.24,0,0,0-6.89-4.51,26.21,26.21,0,0,0-8.68-1.28q-25.35,0-40.9,47.42-9.76,29.31-9.76,55.74a168.83,168.83,0,0,0,2.9,31.11q13.39,43.43,46.68,54.66a35.71,35.71,0,0,0,9.41,1.08,54,54,0,0,0,16.65-2.54,111.65,111.65,0,0,0,16.65-8.12,134.2,134.2,0,0,0,17-11.42q29.31-24.23,51.74-76,10.15-23.18,10.14-28.6C839.43,1376.47,838,1374.78,835.33,1374.78Zm-70-110.65a32.75,32.75,0,0,0-1.41-7.37h-31.5l-6.79-20.88a22.89,22.89,0,0,0-12.32,8.25q-8.34,8-8.33,20.63V1268q2.16,20.26,18.46,28.6a32.92,32.92,0,0,0,12.31,2.17,32.07,32.07,0,0,0,9.86-1.46l-5-15.25Z" transform="translate(-132.45 -308.42)"/><path class="cls-32" d="M357.21,1053l.33-1,0-.1,17.73-1.81c5.33-.41,10.9-.75,16.68-1,14.9-.75,31.27-1.13,49.2-1.13q11.82,0,23.37.22,33,.63,63.85,3Q546.5,1053,553,1053a17.58,17.58,0,0,0,4.06-.36,4.8,4.8,0,0,0,.66-.18,4.54,4.54,0,0,0,1.8-1.25,3.19,3.19,0,0,0,.36-.38,6.91,6.91,0,0,0,1.09-3.62,6.08,6.08,0,0,0-.44-2.24,7,7,0,0,0-1-1.74,10.6,10.6,0,0,0-1.94-.86q-16.8-6-119.31-6-28.6,0-42.17.18t-19.9.73l-6.3.53c-1.69.13-3.28.26-4.74.36-1.15.2-2.52.4-4,.59-1.84.24-3.94.47-6.3.71l-1.63.16-.56-.65-1.61-1.89q-9.42-11.92-19.19-11.95a17.34,17.34,0,0,0-9.14,2.52,19.71,19.71,0,0,0-3,2.2c-.44.4-.89.83-1.35,1.28a72.52,72.52,0,0,0-7.23,8.43c-1,1.37-2.09,2.84-3.18,4.4l-18.46,2.9c-3,.47-6,1-9,1.54q-20.85,3.66-43.13,9.13c-6.21,1.53-12,3.07-17.57,4.62q-15.89,4.44-28,9c-2.64,1-5.38,2.18-8.18,3.43q-4.6,2.07-9.49,4.57c-.81.41-1.6.8-2.41,1.23a102.54,102.54,0,0,0-16.47,10.31,61.81,61.81,0,0,0-14.66,17c-.19.31-.35.62-.53.92a60.5,60.5,0,0,0-3.91,7.87,43.08,43.08,0,0,0-2.86,10.31c0,.27-.09.53-.12.8h0l0,.27-.71,8.77q0,27.17,27.87,41.63c1.06.6,2.07,1.12,3,1.61,4.55,2.29,8.13,3.46,10.72,3.46s4-1.21,4-3.62v-1.81h0a9.19,9.19,0,0,0-1.09-2.17,6.6,6.6,0,0,0-1.72-1.59c-.35-.25-.73-.5-1.17-.76l-1.94-1.1c-.84-.48-1.8-1-2.88-1.6l-1.33-.74q-18.83-9-22.44-21a25.83,25.83,0,0,1-1.08-3,11.88,11.88,0,0,1-.36-1.35c-.11-.5-.17-1-.24-1.57a23.26,23.26,0,0,1-.13-2.42l.15-2.17.22-2.9q1.08-17.65,14.32-30.65a67.94,67.94,0,0,1,10.1-8.07,99,99,0,0,1,9.11-5.31q23.31-12.12,67.08-22.55l1.6-.39q16.56-4.1,33-7.22c5.32-1,9.66-1.78,13.08-2.32a64.38,64.38,0,0,1,8.08-.94h1.1v.36a9.19,9.19,0,0,1-.48,2.17c-.2.66-.46,1.46-.79,2.38-.06.18-.11.33-.18.52q-5.79,15.93-12.13,47.59c-.63,3.18-1.22,6.41-1.83,9.62-.5,2.65-1,5.29-1.48,8q-4.2,23.44-7.36,48.11-9.42,71.31-9.41,154.18c0,11,.17,22.32.42,33.74.1,4.31.16,8.59.29,13,0,3.7.07,7.46.16,11.24.06,2.4.12,4.79.21,7.22.2,4.71.35,8.89.47,12.6.16,5.42.25,9.81.25,13.09,0,2.24,0,4.83.06,7.69,0,2.36.07,4.91.13,7.7.09,5,.23,9.45.41,13.54,0,1,.08,2,.13,2.91l.68,25.63,0,1.53c0,1.45,0,2.94.11,4.47q.69,15.6,6.13,36.76c.1.38.18.74.28,1.12,1.72,6.58,4.22,11.47,7.46,14.74a15.86,15.86,0,0,0,7.73,4.45l3,.32.29,0q9,0,14.48-9.41c.67-1.61,1.37-3.52,2.08-5.7q2-6,4.07-14.92c.46-2,.88-3.89,1.29-5.8.19-.89.37-1.77.55-2.65,1.23-6.1,2.21-12,2.86-17.61q.72-7.24,1.46-14.49c.48-3.37.83-5.91,1.08-7.6.1-.91.23-2.2.4-3.81.23-2.19.51-5,.86-8.49q.9-9,2-19.55c.22-2.15.46-4.49.73-7,.64-5.89,1.43-12.71,2.36-20.52.44-3.7.89-7.31,1.34-10.88q1.18-9.26,2.43-17.9c.13-.89.25-1.81.38-2.69q.48-3.71.95-7.32,5.19-40.12,8.68-68,1.17-9.27,2.15-17.19,4.14-33.81,6.51-55,1.32-12,2.59-23.75,1-9.08,1.92-18,3.62-44.14,3.62-72,0-13.1-.71-25.65c-.21-3.66-.44-7.31-.73-10.9-.24-1.8-.45-3.5-.64-5.16-.41-3.46-.75-6.65-1-9.5-.06-.71-.11-1.31-.16-1.93s-.08-1-.12-1.47C357.31,1055.48,357.21,1053.86,357.21,1053Z" transform="translate(-132.45 -308.42)"/><path class="cls-33" d="M1867.55,1380.57a4.16,4.16,0,0,0-.49-1.93,5.21,5.21,0,0,0-2.08-2.17,4.2,4.2,0,0,0-2.14-.61h-.73a53.85,53.85,0,0,0-6.34,2.69c-2.76,1.31-6.24,3.06-10.48,5.26q-6.61,3.45-13.93,7.43h0l0,0q-7.3,4-15.33,8.48c-1.78,1-3.48,2-5.2,3-8.64,4.92-16.53,9.63-23.58,14-2.64,1.69-4.88,3.07-6.69,4.15a15.53,15.53,0,0,1-3.07,1.64l-2.16-8.33c-1-3.36-2.2-7.21-3.65-11.43-.72-2.13-1.49-4.32-2.34-6.66-2.13-5.9-4.31-11.16-6.53-15.85-.41-.88-.83-1.77-1.24-2.61l-4.47-8.31-8.93-16.66q-10.14-18.09-14.11-29c-.46-1.24-.82-2.48-1.2-3.73a61.71,61.71,0,0,1-2.78-18l.06-1.2.3-5.69c.12-1.89.28-3.62.47-5.21s.38-2.81.63-4a59.51,59.51,0,0,1,2.16-8.12c1.19-3.43,2.47-6.61,3.82-9.58a74,74,0,0,1,7.74-13.48c.49-.66,1-1.31,1.47-1.92q6.52-8.34,11.57-8.33a7.62,7.62,0,0,1,5.43,2.54,17.36,17.36,0,0,1,5.1,10.45,32.31,32.31,0,0,1,.33,4.75,57.62,57.62,0,0,1-1.71,12.92,114.53,114.53,0,0,1-3.72,12.41,104.32,104.32,0,0,1-10,20.27c-.7,1.13-1.4,2.2-2.1,3.23a50.2,50.2,0,0,1-10.37,11.61,9.57,9.57,0,0,0-1,1,8,8,0,0,0-1.3,1.91,5.85,5.85,0,0,0-.6,2.5h0a4,4,0,0,0,2.75,3.76,8.94,8.94,0,0,0,1.59.57q3.55,0,9.86-6.94c.51-.56,1-1.13,1.55-1.75,1.18-1.38,2.33-2.81,3.46-4.27a129.52,129.52,0,0,0,10.11-15.27c.78-1.62,1.54-3.32,2.3-5,1.37-3.17,2.68-6.56,3.94-10.09,1-2.87,2-5.82,3-8.93a102.27,102.27,0,0,0,3.7-15.91,44.23,44.23,0,0,0,.46-6v-.73c-.25-3.14-.6-6.34-1.08-9.58a29,29,0,0,0-1.76-6.83c-.14-.32-.27-.66-.42-1a34.51,34.51,0,0,0-5.43-8.69,25.11,25.11,0,0,0-7.7-6.36c-.09,0-.17-.11-.26-.15a23,23,0,0,0-10.86-3.27h-2.9a34.94,34.94,0,0,0-5.54.48,28.13,28.13,0,0,0-3.14.62,71.75,71.75,0,0,0-22.82,12.77q-17.73,14.57-30,41.87c-.91,2.25-1.73,4.52-2.52,6.8a135.86,135.86,0,0,0-5.61,22.17s0,0,0,.08c-.06.35-.1.71-.16,1.06-.46,3-.84,6-1.11,9l-.73,12.68a55.47,55.47,0,0,0,.73,9c.48,2.9,1.21,6.52,2.16,10.84.3,1.22.67,2.55,1.08,3.94l.06.19c.38,1.31.83,2.7,1.32,4.16.06.17.12.35.17.52.48,1.41,1,2.9,1.58,4.45l.18.5q.95,2.55,2,5.34h0q2.29,5.83,5.31,12.73v0c.68,1.56,1.37,3.13,2.1,4.77-.38.55-.78,1.13-1.18,1.73q-6.82,9.83-13.56,18.62l-.32.42-.8,1q-25.39,32.94-49.41,51.49c-2.53,2-5.06,3.82-7.57,5.54a59.88,59.88,0,0,1-14.49,7.61l-.57.17c-1,.34-2,.67-3,.93l-.33.08c-1.1.28-2.19.52-3.29.72s-2,.29-3,.39c-1.41.14-2.82.24-4.23.24-.18,0-.34,0-.52,0a36.83,36.83,0,0,1-8.53-1.06,30.55,30.55,0,0,1-9-2.89,17.15,17.15,0,0,1-5.13-4.39c-.09-.11-.2-.2-.29-.31a12.33,12.33,0,0,1-.65-1.7c-.14-.43-.25-.9-.36-1.39a38.13,38.13,0,0,1-.8-8.51,82.07,82.07,0,0,1,.77-10.63c.42-3.16,1-6.48,1.76-10,.08-.41.16-.79.24-1.17.13-.58.26-1.13.38-1.65l.1-.44q1.82-6.87,2.9-10c.19-.55.39-1,.58-1.47a5.51,5.51,0,0,1,1.6-2.33,5.27,5.27,0,0,1,1.23-.56,13,13,0,0,1,1.28-.34c.34-.06.7-.13,1.09-.18h1.1a60.92,60.92,0,0,0,23.34-8.39,103.33,103.33,0,0,0,19.41-15.18c1-.93,1.9-1.88,2.86-2.86q2.13-2.28,4.12-4.6l.4-.44.31-.39a111.19,111.19,0,0,0,21.39-38.19c.06-.18.13-.35.19-.53a72.35,72.35,0,0,0,2-8.68h0c.2-1.34.34-3,.43-5,.07-1.54.12-3.24.12-5.16,0-1.53,0-2.88,0-4.06s-.08-2.31-.14-3.18a23.92,23.92,0,0,0-.42-3c-.1-.46-.18-.93-.3-1.33-.22-.72-.52-1.54-.86-2.42-.23-.61-.48-1.23-.77-1.92a43.32,43.32,0,0,0-8.14-11,41.14,41.14,0,0,0-4.38-3.77,28.4,28.4,0,0,0-5.36-3.2c-.31-.14-.63-.32-.94-.45a53.23,53.23,0,0,0-19.91-3.61,83.14,83.14,0,0,0-15.57,1.53,102.77,102.77,0,0,0-22.42,7.15c-.75.36-1.49.78-2.24,1.17q-15.86,8.38-31.07,25.25a147.13,147.13,0,0,0-25.33,38.37c-.15.32-.27.66-.41,1-.63,1.46-1.22,2.92-1.8,4.38-.23.61-.46,1.21-.68,1.82q-.84,2.23-1.57,4.48l-.37,1.09c-.6,1.88-1.15,3.76-1.66,5.66l-.33,1.32c-.4,1.56-.78,3.14-1.12,4.72l-.3,1.38c-.38,1.91-.74,3.82-1,5.76-.07.44-.12.89-.18,1.33-.15,1-.3,2-.42,3-.51,1-1.06,2.11-1.65,3.25l-.48.92c-1.17,2.24-2.47,4.68-3.92,7.36a93,93,0,0,1-7.45,13.6c-5.76,8.89-13.62,18.58-23.68,29.09q-23.16,24.27-42.71,29.69a34,34,0,0,1-4.26.49l-1,.06c-2.21.12-4.36.17-6.46.17h-.25a40.52,40.52,0,0,1-4.74-.23l-.86-.12a10.06,10.06,0,0,1-3.25-1.09l-.81-.47-1.82-1.07-.45-.27a21.14,21.14,0,0,1-2.1-1.56c-3.65-3.07-6.42-7.45-8.35-13.1-.41-1.22-.8-2.47-1.13-3.8-.45-1.63-.81-3.36-1.18-5.07a133,133,0,0,1-2.8-28.23q0-45.24,22.8-131c1.51-.38,2.75-.64,3.75-.8l.77-.09c.87-.11,1.51-.21,2-.31l.36-.07a6.93,6.93,0,0,1,1.34-.16l.47,0a18.7,18.7,0,0,0,2.17-.17c.77-.11,1.9-.24,3.33-.43l1-.12c1.65-.24,3.31-.54,5-.88q26.58-5.3,58.26-26.86,4.88-3.32,9.86-7,2.52-2.17,6.88-6c.11-.1.21-.21.33-.31a103.42,103.42,0,0,0,8-7.83q36.21-37.71,50-84c1.84-6.15,3.41-12.41,4.65-18.78q.81-5.33,1.16-10.88c.18-2.85.3-5.73.3-8.68a137,137,0,0,0-.82-14.91c-.35-3.2-.78-6.32-1.36-9.32q-7.33-32.31-30.54-40.38a52.06,52.06,0,0,0-17.24-2.7q-25.32,0-52.85,19.9c-2.6,1.86-5.27,4-8,6.17-3.36,2.76-6.79,5.75-10.31,9.07-1.78,1.67-3.58,3.39-5.4,5.21a285.49,285.49,0,0,0-23,25.88,379.81,379.81,0,0,0-42.11,71.27q-23.33,51-36.79,114.77a345.78,345.78,0,0,0-7.24,69.13c0,.25,0,.5,0,.75,0,3,.06,5.9.16,8.8,0,1.08.07,2.14.12,3.21,0,.78,0,1.58.09,2.35-.53,1.08-1.14,2.32-1.84,3.7q-3.63,7.24-8.68,16.65c-.35.66-.69,1.3-1,1.94-2.07,3.85-4,7.55-5.93,11.06-.59,1.09-1.15,2.16-1.72,3.22l-.72,1.34c-1,2-2,3.69-2.8,5.19-1.46,2.66-2.59,4.62-3.36,5.85q-26.42,42.33-65.15,42.34l-5.73-.3-1.13-.06c-1.24-.09-2.45-.24-3.64-.44a34.52,34.52,0,0,1-5.94-1.65c-.28-.11-.58-.18-.87-.3l-.12-.06a35.8,35.8,0,0,1-14.23-10.94,81.89,81.89,0,0,1-9.5-15.83,234.07,234.07,0,0,1-10.58-26.87c-.45-1.35-.89-2.64-1.32-3.92q-5.65-16.65-9.72-25.76c-.25-.55-.49-1.08-.74-1.61a78.1,78.1,0,0,0-6.52-11.78c-.54-.77-1.08-1.51-1.61-2.18-1-1.24-2.06-2.47-3.16-3.71-2.12-2.39-4.43-4.77-7-7.16l-.67-.87-.44-.51c-.23-.26-.45-.52-.7-.78l5-5.06a40.67,40.67,0,0,0,4.71-4.7c.38-.45.82-.95,1.28-1.5l.8-.95c1.4-1.66,3-3.66,5-6.05,2.35-2.91,5.47-6.75,9.32-11.47l3.52-4.29c.65-.93,1.37-1.89,2.09-2.85,1.16-1.54,2.37-3.11,3.71-4.74q6.61-8.21,11.76-14.33,12.36-14.7,16.47-17.53c1-.7,2.08-1.33,3.11-1.93,6.11-3.51,11.94-5.3,17.51-5.3a16.93,16.93,0,0,1,9,2.24,12.23,12.23,0,0,1,1.88,1.37,18.8,18.8,0,0,1,3.75,6.11q2.4,6.1,2.4,15.62a99.69,99.69,0,0,1-1.09,14.11l-.27,5-.08,1.49c0,.6,0,1.13,0,1.59a8.89,8.89,0,0,0,.14,1.13c0,.14.1.26.14.39a2.91,2.91,0,0,0,.36.7,4,4,0,0,0,.4.54,8.53,8.53,0,0,0,.86.93,6.55,6.55,0,0,0,2.07,1.42,6.35,6.35,0,0,0,2.51.55,4.5,4.5,0,0,0,3.62-1.82,4.64,4.64,0,0,0,.76-1.83c.23-.83.45-1.89.68-3.24.27-1.61.54-3.38.8-5.29.22-1.53.44-3.13.65-4.85.56-4.23.89-7.89,1-11,0-1,.07-1.89.07-2.75a39,39,0,0,0-.73-7.6,50.54,50.54,0,0,0-1.4-6.21,32,32,0,0,0-8.37-14.43,26.44,26.44,0,0,0-2.88-2.33,27.34,27.34,0,0,0-16.3-4.9q-9.42,0-20.63,5.07c-.25.11-.5.24-.74.36q-13,6.21-30.91,29.69c-.55.71-1.1,1.42-1.65,2.16-2.57,3.3-4.86,6.27-6.9,8.92s-3.74,4.85-5.23,6.81c-1.28,1.7-2.41,3.18-3.45,4.52-1.41,1.82-2.63,3.36-3.6,4.54q-2.54,3.09-3.8,4.53c-.37.42-.72.8-1.06,1.17l-.51.54c-.26.28-.53.57-.79.82l-.16.16-.85.86-.25.25c-.15.15-.32.34-.48.52s-.4.44-.61.7-.58.71-.89,1.12l.35-3.6c.47-2.21,1-4.63,1.62-7.24q4.92-21.33,15.57-60.42c1.55-5.66,3.17-11.55,4.89-17.76h15.2q7.13,0,11.34-.21c.91,0,1.71-.09,2.42-.15s1.37-.15,2-.26a29.1,29.1,0,0,0,6.63-1.92,127,127,0,0,0,30.94-15.74,121.09,121.09,0,0,0,25.15-22.62,167.26,167.26,0,0,0,27.42-46.77,144.67,144.67,0,0,0,4.8-15.11,102.81,102.81,0,0,0,2.82-11.63c2-10.4,3-22.79,3-37.24q0-6.42-.15-10.72c0-1.67-.12-3.11-.21-4.3-.12-1.6-.3-3.1-.54-4.49a32.29,32.29,0,0,0-.91-4q-12.31-36.18-46.33-37.64a62.37,62.37,0,0,0-16,2.23,92.49,92.49,0,0,0-15.53,5.73h0q-41.76,21-76.1,84.37c-1.91,3.51-3.81,7.09-5.69,10.8q-25,48.75-36.73,108.62a557,557,0,0,0-9.24,76.34q-.51,10.5-.78,22.57-.3,13.29-.31,28.47c0,3.85,0,7.6,0,11.17-2.59,9.4-6,20.85-10.36,34.23q-3.4,10.59-7.63,21.11c-1.09,2.74-2.26,5.47-3.43,8.2-2.06,4.78-4.19,9.55-6.5,14.31a147.5,147.5,0,0,1-12.18,20.08c-1.65,2.26-3.32,4.43-5,6.46q-3.08,3.62-6.3,6.76c-.91.89-1.81,1.71-2.7,2.5-7.62,6.76-14.56,10.17-20.82,10.17a17.24,17.24,0,0,1-7.35-1.29,5.59,5.59,0,0,1-3.14-3.43c-1.94-4.58-2.89-10.61-2.89-18.08a164.86,164.86,0,0,1,2.35-24.7c1.18-7.49,2.79-15.86,4.88-25.25q5.91-25.74,9.4-46.08,5.06-29.44,5.08-47.65c0-3.77-.07-7-.19-9.86-.11-2.49-.26-4.63-.47-6.4-.12-1.12-.26-2.11-.42-2.94a58.34,58.34,0,0,0-2.89-8.18,45.49,45.49,0,0,0-11.06-15.7,38.83,38.83,0,0,0-6.84-5c-.28-.16-.56-.35-.85-.51l-.41-.19a29.7,29.7,0,0,0-7.74-2.78,28.37,28.37,0,0,0-5.69-.56,26.58,26.58,0,0,0-8.7,1.41c-.67.23-1.33.47-2,.75-3.25,1.46-7.55,4.83-12.86,10.14-3.53,3.53-8,8.37-13.32,14.47-2.69,3.07-5.59,6.43-8.74,10.14-3.74,4.21-7.23,8.24-10.53,12.12q-10.5,12.32-18.11,22.48c-1,1.41-2.06,2.78-3,4.13q-11.78,16.29-26.24,40.89-5.47,9.08-9.67,15.82-12.23,19.62-13.86,19.65l-.15-.3-.21-.43c.21-.84.41-1.63.61-2.46,2.39-9.59,4.49-18.21,6.27-25.76q2.9-12.3,6.51-28.95t9.41-45.25q2.53-13.38,3.44-19.9c.3-2.17.53-4.44.68-6.79.06-.91.05-1.9.09-2.83.05-1.49.13-2.94.13-4.5v-8.32a16.56,16.56,0,0,0-.54-4.71,13.1,13.1,0,0,0-.55-1.46,14.83,14.83,0,0,0-1.07-2.15,25.32,25.32,0,0,0-8.5-11q-6-4.53-15.4-4.52a30.66,30.66,0,0,0-6.31.71,41,41,0,0,0-5.27,1.46,38.26,38.26,0,0,0-8.38,5.23q-14.6,11.78-24.38,40.56c-1,2.92-1.91,5.83-2.78,8.74-.29,1-.55,2-.83,2.94-.53,1.87-1.06,3.74-1.54,5.61-.36,1.36-.67,2.71-1,4.07s-.72,3-1.05,4.52-.63,3-.93,4.45-.54,2.76-.78,4.14c-.29,1.56-.55,3.12-.8,4.68q-.3,1.95-.57,3.9c-.23,1.62-.45,3.25-.65,4.87-.14,1.19-.25,2.38-.37,3.57-.18,1.74-.36,3.48-.49,5.22-.07.93-.12,1.86-.18,2.79-.13,2-.26,4-.33,6a278.57,278.57,0,0,1-15.2,30.61q-13.2,23.18-25.88,36.9-18.82,19.55-36.2,22.47l-4.7.35q-10.86,0-14.46-8.68c-.51-1.21-.91-2.41-1.29-3.62a17.36,17.36,0,0,1-.52-4.71v-8.32a137.34,137.34,0,0,1,1.63-21.18q1.62-10.68,7-36l6.9-32.58q3.58-16.26,3.59-27.14,0-16.26-9-23.16a18.24,18.24,0,0,0-6.89-4.51,26.21,26.21,0,0,0-8.68-1.28q-25.35,0-40.9,47.42-1.65,5-3,9.86c-2.65-.06-5.49-.09-8.54-.09q-13.39-.36-21-.9c-1.36-.1-2.62-.21-3.82-.32a79.41,79.41,0,0,1-8.13-1.13,32.81,32.81,0,0,1-8-2.72l.3-8.79.42-12.2a130.3,130.3,0,0,0-1.71-22.41,57.24,57.24,0,0,0-3.71-13q-5.82-13.77-14.11-16.3l-.58-.08a18.62,18.62,0,0,0-3.06-.28c-4.73,0-8.88,2.13-12.46,6.33a33.6,33.6,0,0,0-3.83,5.6,28.31,28.31,0,0,0-2,6.17s0,.07,0,.1c-.16.89-.31,2-.45,3.36-.17,1.57-.32,3.42-.44,5.59v3.25a59.37,59.37,0,0,0,3.22,20.33,41.22,41.22,0,0,0,2.94,6.46,49.78,49.78,0,0,0,8.85,12.54c1,1,2,2,3.1,2.91a51.11,51.11,0,0,0,4.33,3.37c1.79,1.12,3,2,3.79,2.56l.18.15a2.54,2.54,0,0,1,.36.45,2.88,2.88,0,0,1,.74,1.91l-.27,1.88-.1.64a82.7,82.7,0,0,1-2.54,9.78c-.6,2-1.28,4.14-2,6.26-.49,1.5-1,3-1.57,4.59s-1,2.86-1.51,4.35q-2.84,7.74-5.3,13.1l-.13.29c-.15.32-.3.63-.44,1a215.75,215.75,0,0,1-25,42.65q-4.58,6-9.5,11.42-20.45,22.44-36,22.44-8.75-.9-12.07-11.8-2-6.69-2-17.15v-5.08c0-1.56.16-3.15.28-4.74a119.53,119.53,0,0,1,3.88-22.4c1.12-4.18,2.69-9.33,4.64-15.36q2.57-7.89,6.07-17.9c1-2.91,2.08-5.91,3.22-9.09.47-1.28.92-2.53,1.36-3.75q4.82-13.26,7.51-21.21c1.63-4.84,2.84-8.78,3.63-11.9.2-.78.39-1.55.53-2.22a48.56,48.56,0,0,0,1.09-10.14,40,40,0,0,0-1-9.84,19.11,19.11,0,0,0-.75-2.45,24,24,0,0,0-1-2.31,24.86,24.86,0,0,0-2.52-3.84c-.39-.49-.81-1-1.25-1.46s-.63-.74-1-1.09h0a26.87,26.87,0,0,0-9.33-5.68,21.15,21.15,0,0,0-7-1.19,24.3,24.3,0,0,0-9.45,2q-10.65,4.46-21,19a119.9,119.9,0,0,0-7.7,14,186.44,186.44,0,0,0-7.86,19.63c-1.7,5-3.13,9.89-4.43,14.7a193.39,193.39,0,0,0-5,23.68c-.05.36-.11.72-.17,1.08-.18,1-.36,2.09-.54,3.07-.11.62-.22,1.13-.34,1.56a8.1,8.1,0,0,1-.25.84c0,.11-.09.23-.13.32a41.68,41.68,0,0,1-5.43,5.06c-2.09,1.74-4.26,3.48-6.47,5.22-.86.67-1.71,1.35-2.59,2-1.45,1.13-2.71,2.08-3.8,2.9-1.26.93-2.29,1.66-3.07,2.18-.54.24-1.06.45-1.54.64a10.92,10.92,0,0,1-3.54.8,3.12,3.12,0,0,1-2.51-1.44,2,2,0,0,1-.18-.23,6.69,6.69,0,0,1-1.28-4.48q0-5.4,3.87-17,3.13-9.39,8.81-22.83c3.22-7.53,6.09-14.55,8.65-21.11q14.85-38,14.87-54.17c0-.31-.05-.58-.06-.89a26.72,26.72,0,0,0-1-7.06h0a19.87,19.87,0,0,0-4.34-8.15,26.42,26.42,0,0,0-2.16-2.2,24.21,24.21,0,0,0-5.44-3.78,18.52,18.52,0,0,0-3.12-1.44,10.87,10.87,0,0,0-1-.36c-.48-.1-1-.17-1.48-.23a15.74,15.74,0,0,0-2-.13h-3.62c-6.52,0-12.81,3.14-18.82,9.41-.41.39-.8.84-1.21,1.26a83.15,83.15,0,0,0-11.47,15.23,144.33,144.33,0,0,0-9.4,18.8,180.87,180.87,0,0,0-10.17,32.41c-1,4.92-1.9,9.86-2.5,14.82L392,1390.7a92.85,92.85,0,0,0,1.57,17.31,71.81,71.81,0,0,0,5.48,17.26,51.1,51.1,0,0,0,9.69,14.23,39.57,39.57,0,0,0,9.68,7.3l.41.16a28.66,28.66,0,0,0,4.43,1.56c.31.08.66.21.95.27s.5.09.76.13a43,43,0,0,0,6.83.42,46.8,46.8,0,0,0,6.83-.38c.34,0,.69-.11,1-.17a22.21,22.21,0,0,0,6-2.71q8.33-4.35,19.19-15.93v8a117.17,117.17,0,0,0,3.62,27.33c.58,2.44,1.21,4.78,1.87,7a95.82,95.82,0,0,0,7.16,18.12q11.59,20.64,28.6,26.79a44.54,44.54,0,0,0,4.42,1.06l.11,0a28,28,0,0,0,4.89.36H519c7,.18,14.51-2.39,22.54-7.63.29-.18.56-.33.85-.52l.36-.26q20.76-14.15,46.1-52,2.73-4.07,5.3-8.27a248.85,248.85,0,0,0,25-55.3c.4-1.26.83-2.49,1.21-3.76l2.89-10.49,7.25,1.46c.79.17,1.72.35,2.79.51q4.69.75,12.94,1.28,11,.73,21.9.73c1.55,0,3,0,4.42,0a160.8,160.8,0,0,0-4,35.15,168.83,168.83,0,0,0,2.9,31.11q13.39,43.43,46.68,54.66a35.71,35.71,0,0,0,9.41,1.08,54,54,0,0,0,16.65-2.54,111.65,111.65,0,0,0,16.65-8.12,134.2,134.2,0,0,0,17-11.42q25.35-21,45.58-62.56c0,.43.1.82.15,1.24.19,2,.43,3.87.69,5.74.06.43.11.88.18,1.3.35,2.33.77,4.57,1.24,6.75.11.53.24,1,.36,1.57q.59,2.58,1.28,5c.15.54.3,1.07.46,1.6.61,2,1.26,4,2,5.88q7.06,18.29,17,27.69t18.28,9.41q11.58,0,21.35-18.46,3.61-6.15,7.24-11.94c1.24-2.12,2.45-4.19,3.66-6.24q31.53-53.58,51.73-80.26c2.72-3.52,5.14-6.58,7.27-9.22,2.4-3,4.45-5.4,6.11-7.25.68-.76,1.35-1.47,2-2.16.87-.89,1.73-1.74,2.59-2.5a37.29,37.29,0,0,1,4.43-3.48,56.94,56.94,0,0,1,5.87-4.22c.64-.4,1.28-.85,1.91-1.2,1-.61,1.9-1.06,2.64-1.41a6.77,6.77,0,0,1,2.23-.77,34.39,34.39,0,0,1-1.08,5.6c-.64,2.66-1.47,5.79-2.49,9.3-.13.46-.26.91-.4,1.38q-5.26,17.74-8.3,29.53c-.62,2.4-1.18,4.64-1.66,6.67a150.5,150.5,0,0,0-3.8,22.62c-.13,1.79-.24,3.69-.34,5.66-.25,5.07-.38,10.7-.38,17v5.79q0,39.09,15.93,67.86t40.17,28.77a47.59,47.59,0,0,0,10.18-1.1,52.46,52.46,0,0,0,16.53-6.92,73.86,73.86,0,0,0,12.2-9.53q18.27-17.55,30.58-42.89a351.47,351.47,0,0,0,14.84-35.83c.11-.3.2-.59.31-.89,1-2.77,1.94-5.5,2.86-8.18l.52-1.51.22-.65c0,.48,0,1,.07,1.46q1.45,23.88,3.26,36.73c0,.12,0,.22,0,.33q1.58,11,4,16.47c.23.53.46,1,.71,1.48a14.68,14.68,0,0,0,7.6,7.24l.08,0a8.91,8.91,0,0,0,4.26,1.41,20.19,20.19,0,0,0,9.1-3.84l.2-.15.06-.06q4.77-4.08,6.93-13c.1-.61.23-1.52.37-2.62.2-1.48.44-3.34.72-5.69q.69-5.89,1.37-13.05c0-.24,0-.47.07-.71l.66-6.16,7.31-68a1.05,1.05,0,0,1,.43.15,6,6,0,0,1,.83.57l.7.6.31.27,1,.94q8.34,7.24,20.62,44.52,7.25,21.36,13.76,33.66a75,75,0,0,0,13.27,18.39c.52.51,1,1,1.57,1.51.74.71,1.5,1.37,2.27,2a42.52,42.52,0,0,0,22.71,9.57,56.36,56.36,0,0,0,10.84,1.08,77.29,77.29,0,0,0,31.22-6.69c2.28-1,4.54-2,6.79-3.27a85.36,85.36,0,0,0,25-20.33c1.88-2.23,3.69-4.54,5.37-7,1.16-1.66,2.5-3.73,4-6.17l.08-.12c1-1.59,2-3.33,3.13-5.25l.59-1,1-1.71c.31-.54.63-1.1.94-1.66.22-.38.43-.75.64-1.14l1.23-2.18.23-.43q5.68-10.21,13.18-24.63c.06.49.16.95.23,1.44.35,2.37.75,4.7,1.17,7,.21,1.19.42,2.38.65,3.55.43,2.18.91,4.32,1.4,6.44.29,1.26.56,2.53.87,3.77.49,2,1,3.86,1.59,5.78.37,1.32.72,2.66,1.12,4,.6,2,1.27,3.85,1.93,5.75.38,1.11.72,2.25,1.12,3.35a109.93,109.93,0,0,0,5.87,12.16q11.05,19.58,27.89,27.57a54.76,54.76,0,0,0,10.41,3.71,49.59,49.59,0,0,0,8.68.73l11.22.35a48.89,48.89,0,0,0,7.64-.63c1.42-.22,2.85-.48,4.31-.82a130.19,130.19,0,0,0,56.64-37.46l.09-.1c1.69-1.91,3.33-3.82,4.94-5.72.43-.5.85-1,1.26-1.51,1.53-1.82,3-3.65,4.46-5.47l.28-.35q2.31-2.94,4.47-5.86l1-1.33c1.28-1.75,2.54-3.51,3.75-5.26l.46-.66c1.3-1.91,2.56-3.81,3.77-5.72.33-.51.66-1,1-1.55s.79-1.24,1.17-1.86q.3,3.77.83,7.35l.06.37c.35,2.31.77,4.57,1.27,6.76,0,.18.08.34.12.51.51,2.2,1.08,4.36,1.74,6.44h0c.64,2,1.37,4,2.16,5.93.09.22.17.45.27.68.76,1.82,1.59,3.57,2.48,5.29l.47.9q1.33,2.52,2.87,4.89l.54.82q1.59,2.4,3.36,4.65l.45.55c1.27,1.56,2.58,3.08,4,4.54.27.28.55.53.82.81q1.93,2,4,3.7a55.35,55.35,0,0,0,9.17,6.52,49.45,49.45,0,0,0,5.41,2.57,78.14,78.14,0,0,0,13.24,4.14,53.46,53.46,0,0,0,13.73,1.81,59,59,0,0,0,10.73-1,66.36,66.36,0,0,0,7.74-1.87,108.71,108.71,0,0,0,19.09-8q16.85-8.92,35.56-24.89a218,218,0,0,0,19.22-19.49q3.59-4,7.38-8.56c1.41-1.68,2.79-3.4,4.18-5.11.92-1.13,1.85-2.24,2.77-3.38,1.25-1.57,2.49-3.17,3.73-4.76,1.1-1.41,2.2-2.81,3.29-4.23,1.26-1.64,2.5-3.32,3.74-5,1-1.34,2-2.66,3-4,1.61-2.2,3.2-4.44,4.78-6.68.36-.5.72-1,1.07-1.49q2.38,5,4.59,9.72c.57,1.22,1.09,2.39,1.64,3.59.88,1.92,1.77,3.85,2.6,5.72q4.23,9.49,7.71,18.14c2.8,7,4.75,12.18,5.88,15.68a20.28,20.28,0,0,1,1.17,4.78l-4,3.63-9.07,8.29c-3.09,2.53-6.09,5.1-9,7.7-.72.64-1.46,1.26-2.17,1.91-.43.38-.79.72-1.19,1.09-2.18,2-4,3.72-5.38,5.17-.52.54-1,1-1.39,1.52q-21.36,23.16-30.77,43.43-7.23,18.83-7.24,34.74c0,1.72.09,3.35.21,5,0,.64.09,1.3.15,1.92.19,1.24.46,2.39.72,3.56,2.75,12.53,9.6,21.27,20.64,26.13a49.19,49.19,0,0,0,11,2.25c1.74.17,3.5.28,5.32.28a43.11,43.11,0,0,0,5.78-.35q29.33-5.81,52.85-37.28a135.23,135.23,0,0,0,11.9-19.91,164.33,164.33,0,0,0,10.35-27q1.93-6.74,3.4-13.58a199.88,199.88,0,0,0,4.38-42q0-9.06-.73-18.11l-.06-.91-.66-8.86,6.38-4.09,7.73-5q12-7.38,25.59-15.16l4.82-2.75q16.29-9.24,29-15.75c.38-.22.76-.42,1.13-.62s1-.49,1.42-.71.72-.34,1.07-.48c2.6-1.51,4.74-2.77,6.47-3.81l.59-.35a29.39,29.39,0,0,0,3.08-2l0-.11A3.86,3.86,0,0,0,1867.55,1380.57Zm-1257-19.91a42.94,42.94,0,0,1-13.32-19.06,45.55,45.55,0,0,1-2.23-9.53l-.2-3.07-.17-2.72a41.85,41.85,0,0,1,1-9.33,26.21,26.21,0,0,1,1.21-4.07,18.11,18.11,0,0,1,.8-1.75c1.3-2.48,2.84-3.83,4.62-4H603a3.79,3.79,0,0,1,1.86.71,10.28,10.28,0,0,1,1,.74,23.91,23.91,0,0,1,4.84,8.51c2.15,6,3.52,14.22,4.15,24.66,0,.29,0,.55.07.84l.35,9-.35,6.52-.73,5.06-.68-.47Zm1081.81,220.78a41.1,41.1,0,0,1-4.71,1.22l-.19,0h0a23.64,23.64,0,0,1-4.49.54q-12.32,0-15.21-9c-.24-.66-.44-1.36-.65-2a38.75,38.75,0,0,1-1.51-11q0-13.28,6.83-28.68a123.35,123.35,0,0,1,5.83-11.5,174.13,174.13,0,0,1,11-16.28c2.57-3.44,5-6.55,7.34-9.41q1.63-2,3.2-3.84c.78-.92,1.56-1.83,2.31-2.68q3.25-3.62,8.68-8.68t10.32-8.87a31.38,31.38,0,0,1,5.95-4,2.84,2.84,0,0,1,.38-.16c0,.09.1.25.16.41.25.7.61,2,1.11,4.11.15.62.29,1.27.43,2,.42,2.06.83,4.37,1.19,6.91.13.9.26,1.76.39,2.64.35,2.44.71,4.83,1.07,7.14.55,4.84.83,9.49,1,14,0,1.35.12,2.73.12,4,0,3.54-.2,7-.49,10.35a103.35,103.35,0,0,1-2.76,16.8,72,72,0,0,1-14.31,28,68.82,68.82,0,0,1-12.48,11.9A54.76,54.76,0,0,1,1692.37,1581.44Zm-74.25-240.69a52.49,52.49,0,0,1,7-5.25c.71-.44,1.43-.88,2.14-1.26l.62-.35.07-.06a2.66,2.66,0,0,0,.39-.31l5.41-2.17h0a8.44,8.44,0,0,1,2.9-.72,2.25,2.25,0,0,1,1,.25,1.15,1.15,0,0,1,.25.12,8,8,0,0,1,1.26,1.08,3.55,3.55,0,0,1,.91,1.26,4.9,4.9,0,0,1,.1.5,6.88,6.88,0,0,1,.09,1.13l-.73,5.07a47.87,47.87,0,0,1-1.45,5,97.69,97.69,0,0,1-4.71,11.32c-1.91,4-3.88,7.65-5.88,11.08-1.28,2.2-2.57,4.32-3.88,6.29a97.77,97.77,0,0,1-11.48,12.82,82.23,82.23,0,0,1-16,11.79,36.51,36.51,0,0,1-9,4c-.88.21-1.79.37-2.71.52l-1,.17c-1,.16-2.1.29-3.19.4h-.35l4.71-10.84a172.8,172.8,0,0,1,20.27-36.75c.7-1,1.39-1.84,2.08-2.73A90.71,90.71,0,0,1,1618.12,1340.75Zm-202.94-58.07,3.57-12.14q17.79-65.62,40.53-109.33a258.22,258.22,0,0,1,24.25-38.7q21.66-29.41,40.75-39.66a47.55,47.55,0,0,1,11.36-4.48c1.06-.31,2-.55,2.94-.76a24.2,24.2,0,0,1,5-.7,10.84,10.84,0,0,1,4.66,2.72c2.59,2.44,4.9,6.35,6.92,11.77,3.14,8.42,4.7,18.21,4.7,29.3a132.16,132.16,0,0,1-1.32,18.11,151.91,151.91,0,0,1-3,15.55,219.61,219.61,0,0,1-10,26.6c-2.18,4.92-4.37,9.48-6.58,13.72-2.07,4-4.16,7.68-6.27,11.07s-4.49,6.54-6.79,9.67q-17.3,23.43-38,38.71c-3,2.2-6,4.33-9.11,6.28-1.72,1.08-3.44,2.08-5.16,3.09a165,165,0,0,1-31.17,14.4,139.83,139.83,0,0,1-25.2,6c-1.43,0-2.16-.36-2.16-1.09Zm-214.49-68.23c1.08-2.83,2.13-5.54,3.16-8.19,1.6-4.12,3.15-8,4.62-11.72q19.9-47.05,41.26-78.54t33.66-31.49h1.45a11.45,11.45,0,0,1,1.91.35c4.5,1.24,8.44,5.33,11.84,12.32a61,61,0,0,1,5.06,25.33,104.61,104.61,0,0,1-2.28,21.16,142,142,0,0,1-7.85,25.17,151.59,151.59,0,0,1-28.23,44.52,132.27,132.27,0,0,1-10.52,9.87,113.74,113.74,0,0,1-13.1,9.59,96.08,96.08,0,0,1-26,11.3,66,66,0,0,1-15.93,2.17,36.54,36.54,0,0,1-5.29-.33c-.43-.06-.84-.13-1.22-.22a4.71,4.71,0,0,1-1.63-.61,1.6,1.6,0,0,1-.91-1.37q0-1.1,2.9-9.77c1.56-4.7,3.42-9.89,5.54-15.53C1199.66,1217.14,1200.16,1215.82,1200.69,1214.45Z" transform="translate(-132.45 -308.42)"/><polygon class="cls-34" points="632.92 955.71 608.25 973.65 613.2 988.89 621.55 1014.6 586.72 989.29 551.88 1014.6 565.18 973.65 530.35 948.34 573.41 948.34 586.72 907.37 593.23 927.47 600.02 948.34 643.09 948.34 632.92 955.71"/></g></g></svg>